<svg xmlns="http://www.w3.org/2000/svg" width="24" height="24" viewBox="0 0 24 24">
  <g id="waze-icon" transform="translate(-589 -3443)">
    <circle id="Ellipse_3" data-name="Ellipse 3" cx="12" cy="12" r="12" transform="translate(589 3443)" fill="#fff"/>
    <g id="waze_1_" data-name="waze (1)" transform="translate(561.876 3393.382)">
      <path id="Path_4" data-name="Path 4" d="M47.155,59.648a7.273,7.273,0,0,1-3.691,7.543,1.861,1.861,0,0,1-1.577,2.545,1.776,1.776,0,0,1-1.681-1.775c-.209.008-2.093,0-2.489-.024a1.768,1.768,0,0,1-1.753,1.8h0a1.86,1.86,0,0,1-1.533-2.461,6.858,6.858,0,0,1-3.251-2.565.958.958,0,0,1,.678-1.515c1.512,0,1.05-1.964,1.407-4A7.125,7.125,0,0,1,40.17,53.5a7.209,7.209,0,0,1,6.985,6.148Zm-4.2,6.761A6.33,6.33,0,0,0,40.17,54.446a6.253,6.253,0,0,0-6.068,4.93c-.31,1.771.162,4.757-2.244,4.757a6.04,6.04,0,0,0,3.056,2.32,1.6,1.6,0,0,1,2.6.521c.465.036,2.583.044,2.868.028a1.608,1.608,0,0,1,2.269-.814A1.681,1.681,0,0,1,42.959,66.409Zm-5.495-7.29a.837.837,0,1,1,1.66,0A.837.837,0,1,1,37.464,59.119Zm3.8,0a.837.837,0,1,1,1.66,0A.837.837,0,1,1,41.267,59.119Zm-4,2.561a.431.431,0,1,1,.837-.188l0,.012A2.051,2.051,0,0,0,40.2,63.062,2.13,2.13,0,0,0,42.3,61.511a.429.429,0,1,1,.83.216,3,3,0,0,1-2.984,2.28,2.917,2.917,0,0,1-2.872-2.328Z" transform="translate(0)" fill="#100f16"/>
    </g>
  </g>
</svg>
